<?xml version="1.0" encoding="utf-8"?>
<!-- Generator: Adobe Illustrator 19.0.0, SVG Export Plug-In . SVG Version: 6.00 Build 0)  -->
<svg version="1.1" id="Layer_1" xmlns="http://www.w3.org/2000/svg" xmlns:xlink="http://www.w3.org/1999/xlink" x="0px" y="0px"
	 viewBox="0 0 416.3 449" style="enable-background:new 0 0 416.3 449;" xml:space="preserve">
<style type="text/css">
	.st0{fill:#8895A9;}
</style>
<path id="XMLID_29_" class="st0" d="M198.3,449c-7.5-1-15.1-1.8-22.6-3c-38.8-5.9-73.1-21.9-102.8-47.4
	c-38.4-33.1-62.6-74.7-70.2-124.8c-10.1-66.7,8-125.5,53.4-175.6c4.2-4.7,8.8-9.1,13.6-13.2c6.9-6.1,17-5.4,22.9,1.1
	c6.1,6.8,5.6,16.9-1.4,23.2c-30.4,27.6-49.6,61.5-56.2,102c-8.9,54.9,5.3,103.7,41.7,145.5c28.7,32.9,65.3,52.3,108.5,57.9
	c91.5,11.9,174.1-47.6,193.8-134.2c14.2-62.4-2.4-117.1-46.1-163.7c-2.5-2.7-5.4-5-8-7.6c-7-6.8-7.5-16.5-1.2-23.2
	c6.2-6.7,16.2-7.1,23.3-0.6c31.6,28.6,52.8,63.5,63,104.9c2.5,10.1,3.5,20.6,5.3,30.9c0.2,1.3,0.6,2.5,0.9,3.8c0,10.7,0,21.3,0,32
	c-0.3,1.1-0.8,2.1-0.9,3.2c-1.4,17.7-5.1,34.9-11.6,51.4c-28.7,72.5-81,117.4-157.5,133.4c-9.2,1.9-18.7,2.7-28,4
	C211.6,449,205,449,198.3,449z"/>
<path id="XMLID_27_" class="st0" d="M211.3,0c10.1,3.6,13.2,10.8,13.1,21.3c-0.3,51.6-0.1,103.2-0.2,154.9c0,7.3-4.1,13.3-10.3,15.6
	c-6.7,2.4-14.3,0.6-18.3-5.2c-1.9-2.8-3.4-6.7-3.4-10.1C192,123.1,192,69.8,192,16.6c0-9.1,5.6-13.7,13.3-16.6
	C207.3,0,209.3,0,211.3,0z"/>
</svg>
